<svg width="288" height="274" viewBox="0 0 288 274" fill="none" xmlns="http://www.w3.org/2000/svg">
<g opacity="0.2">
<path fill-rule="evenodd" clip-rule="evenodd" d="M104.362 69C104.362 71.7614 106.524 74 109.191 74H250.056C252.723 74 254.885 71.7614 254.885 69C254.885 66.2386 252.723 64 250.056 64H109.191C106.524 64 104.362 66.2386 104.362 69Z" fill="#FAFAFA"/>
<path fill-rule="evenodd" clip-rule="evenodd" d="M33.1152 68.9999C33.1152 66.2385 35.2896 63.9999 37.9718 63.9999H76.4259C79.1081 63.9999 81.2825 66.2385 81.2825 68.9999C81.2825 71.7613 79.1081 73.9999 76.4259 73.9999H37.9718C35.2896 73.9999 33.1152 71.7613 33.1152 68.9999Z" fill="#FAFAFA"/>
<path fill-rule="evenodd" clip-rule="evenodd" d="M104.362 136.5C104.362 138.985 106.524 141 109.191 141H250.056C252.723 141 254.885 138.985 254.885 136.5C254.885 134.015 252.723 132 250.056 132H109.191C106.524 132 104.362 134.015 104.362 136.5Z" fill="#FAFAFA"/>
<path fill-rule="evenodd" clip-rule="evenodd" d="M33.1152 136.5C33.1152 134.015 35.2896 132 37.9718 132H76.4259C79.1081 132 81.2825 134.015 81.2825 136.5C81.2825 138.985 79.1081 141 76.4259 141H37.9718C35.2896 141 33.1152 138.985 33.1152 136.5Z" fill="#FAFAFA"/>
<path fill-rule="evenodd" clip-rule="evenodd" d="M33.1152 205C33.1152 202.238 35.2896 200 37.9718 200H76.4259C79.1081 200 81.2825 202.238 81.2825 205C81.2825 207.761 79.1081 210 76.4259 210H37.9718C35.2896 210 33.1152 207.761 33.1152 205Z" fill="#FAFAFA"/>
<path fill-rule="evenodd" clip-rule="evenodd" d="M104.362 205C104.362 202.238 106.491 200 109.118 200H146.771C149.397 200 151.526 202.238 151.526 205C151.526 207.761 149.397 210 146.771 210H109.118C106.491 210 104.362 207.761 104.362 205Z" fill="#FAFAFA"/>
<path fill-rule="evenodd" clip-rule="evenodd" d="M0 9.64789C0 4.31952 4.33354 0 9.67925 0H278.321C283.666 0 288 4.3195 288 9.64789V178.713C288 181.378 285.833 183.537 283.16 183.537C280.488 183.537 278.321 181.378 278.321 178.713V9.64789H9.67925V9.64789V264.352H196.185C198.858 264.352 201.025 266.512 201.025 269.176C201.025 271.84 198.858 274 196.185 274H9.67925C4.33353 274 0 269.68 0 264.352V9.64789Z" fill="#FAFAFA"/>
<path fill-rule="evenodd" clip-rule="evenodd" d="M234.313 236.401C220.513 236.401 209.325 225.253 209.325 211.5C209.325 197.747 220.513 186.599 234.313 186.599C248.114 186.599 259.302 197.747 259.302 211.5C259.302 225.253 248.114 236.401 234.313 236.401ZM234.313 246C215.193 246 199.693 230.554 199.693 211.5C199.693 192.446 215.193 177 234.313 177C253.434 177 268.934 192.446 268.934 211.5C268.934 230.554 253.434 246 234.313 246Z" fill="#FAFAFA"/>
<path fill-rule="evenodd" clip-rule="evenodd" d="M249.109 236.243C246.946 237.809 246.466 240.825 248.037 242.98L264.602 265.706C266.172 267.861 269.199 268.339 271.362 266.774C273.524 265.209 274.004 262.193 272.433 260.038L255.869 237.311C254.298 235.156 251.271 234.678 249.109 236.243Z" fill="#FAFAFA"/>
</g>
</svg>
