<svg width="114" height="33" viewBox="0 0 114 33" fill="none" xmlns="http://www.w3.org/2000/svg">
<path d="M25.432 1.2V32H21.692V4.72H8.052V21.44C8.052 23.3173 7.75867 25.0627 7.172 26.676C6.61467 28.2893 5.764 29.58 4.62 30.548C3.50533 31.516 2.112 32 0.44 32V28.788C1.32 28.788 2.05333 28.436 2.64 27.732C3.256 26.9987 3.72533 26.016 4.048 24.784C4.37067 23.5227 4.532 22.1147 4.532 20.56V1.2H25.432ZM30.7209 16.6C30.7209 14.3413 31.1023 12.2587 31.8649 10.352C32.6569 8.416 33.7569 6.744 35.1649 5.336C36.5729 3.89867 38.2303 2.784 40.1369 1.992C42.0436 1.17066 44.1116 0.759998 46.3409 0.759998C48.5996 0.759998 50.6676 1.17066 52.5449 1.992C54.4516 2.784 56.1089 3.89867 57.5169 5.336C58.9249 6.744 60.0103 8.416 60.7729 10.352C61.5649 12.2587 61.9609 14.3413 61.9609 16.6C61.9609 18.8293 61.5649 20.912 60.7729 22.848C60.0103 24.784 58.9249 26.4707 57.5169 27.908C56.1089 29.316 54.4516 30.4307 52.5449 31.252C50.6676 32.044 48.5996 32.44 46.3409 32.44C44.1116 32.44 42.0436 32.044 40.1369 31.252C38.2303 30.4307 36.5729 29.316 35.1649 27.908C33.7569 26.4707 32.6569 24.784 31.8649 22.848C31.1023 20.912 30.7209 18.8293 30.7209 16.6ZM34.6809 16.6C34.6809 18.9173 35.1796 20.9853 36.1769 22.804C37.2036 24.6227 38.5969 26.06 40.3569 27.116C42.1169 28.172 44.1116 28.7 46.3409 28.7C48.5996 28.7 50.5943 28.172 52.3249 27.116C54.0849 26.06 55.4636 24.6227 56.4609 22.804C57.4876 20.9853 58.0009 18.9173 58.0009 16.6C58.0009 14.2827 57.4876 12.2147 56.4609 10.396C55.4636 8.57733 54.0849 7.14 52.3249 6.084C50.5943 5.028 48.5996 4.5 46.3409 4.5C44.1116 4.5 42.1169 5.028 40.3569 6.084C38.5969 7.14 37.2036 8.57733 36.1769 10.396C35.1796 12.2147 34.6809 14.2827 34.6809 16.6ZM67.2427 1.2H82.4227V4.72H70.9827V32H67.2427V1.2ZM82.4123 16.6C82.4123 14.3413 82.7937 12.2587 83.5563 10.352C84.3483 8.416 85.4483 6.744 86.8563 5.336C88.2643 3.89867 89.9217 2.784 91.8283 1.992C93.735 1.17066 95.803 0.759998 98.0323 0.759998C100.291 0.759998 102.359 1.17066 104.236 1.992C106.143 2.784 107.8 3.89867 109.208 5.336C110.616 6.744 111.702 8.416 112.464 10.352C113.256 12.2587 113.652 14.3413 113.652 16.6C113.652 18.8293 113.256 20.912 112.464 22.848C111.702 24.784 110.616 26.4707 109.208 27.908C107.8 29.316 106.143 30.4307 104.236 31.252C102.359 32.044 100.291 32.44 98.0323 32.44C95.803 32.44 93.735 32.044 91.8283 31.252C89.9217 30.4307 88.2643 29.316 86.8563 27.908C85.4483 26.4707 84.3483 24.784 83.5563 22.848C82.7937 20.912 82.4123 18.8293 82.4123 16.6ZM86.3723 16.6C86.3723 18.9173 86.871 20.9853 87.8683 22.804C88.895 24.6227 90.2883 26.06 92.0483 27.116C93.8083 28.172 95.803 28.7 98.0323 28.7C100.291 28.7 102.286 28.172 104.016 27.116C105.776 26.06 107.155 24.6227 108.152 22.804C109.179 20.9853 109.692 18.9173 109.692 16.6C109.692 14.2827 109.179 12.2147 108.152 10.396C107.155 8.57733 105.776 7.14 104.016 6.084C102.286 5.028 100.291 4.5 98.0323 4.5C95.803 4.5 93.8083 5.028 92.0483 6.084C90.2883 7.14 88.895 8.57733 87.8683 10.396C86.871 12.2147 86.3723 14.2827 86.3723 16.6Z" fill="#02AEB0"/>
</svg>
