<svg width="56" height="56" viewBox="0 0 56 56" fill="none" xmlns="http://www.w3.org/2000/svg">
<path d="M26.1605 37.6341L26.1609 37.6337L40.8254 22.9695C40.8254 22.9695 40.8254 22.9694 40.8254 22.9694C42.0981 21.697 42.0972 19.6367 40.826 18.3635L40.825 18.3626C39.5533 17.0926 37.4931 17.0913 36.2223 18.363C36.2221 18.3631 36.222 18.3632 36.2219 18.3633L23.8584 30.7273L19.7828 26.6503L19.7826 26.6501C18.5103 25.3781 16.4497 25.378 15.1775 26.6502C13.905 27.9225 13.9056 29.983 15.1772 31.2557L15.1775 31.2561L21.5553 37.6337L21.5567 37.6352C22.1911 38.2669 23.0219 38.5884 23.8583 38.5884C24.6887 38.5884 25.526 38.2678 26.1605 37.6341ZM1 27.999C1 13.1123 13.1148 1 28 1C42.8894 1 55 13.1122 55 27.999C55 42.8867 42.8885 55 28 55C13.1141 55 1 42.8857 1 27.999Z" stroke="#FAFAFA" stroke-width="2"/>
</svg>
