<svg width="0" height="0" class="hidden" xmlns="http://www.w3.org/2000/svg">
  <symbol viewBox="0 0 17 18" id="user">
    <path fill-rule="evenodd" d="M8.40824 8.4958C10.0492 8.4958 11.3794 7.07687 11.3794 5.32653C11.3794 3.57619 10.0492 2.15727 8.40824 2.15727C6.7673 2.15727 5.43705 3.57619 5.43705 5.32653C5.43705 7.07687 6.7673 8.4958 8.40824 8.4958ZM8.40824 10.2245C10.9442 10.2245 13.0001 8.0316 13.0001 5.32653C13.0001 2.62146 10.9442 0.428574 8.40824 0.428574C5.87224 0.428574 3.81641 2.62146 3.81641 5.32653C3.81641 8.0316 5.87224 10.2245 8.40824 10.2245Z"></path>
    <path fill-rule="evenodd" d="M9.03491 10.6071H7.16862C4.1977 10.6071 1.78931 12.9576 1.78931 15.8571C1.78931 15.9163 1.83846 15.9643 1.89909 15.9643H14.3044C14.3651 15.9643 14.4142 15.9163 14.4142 15.8571C14.4142 12.9576 12.0058 10.6071 9.03491 10.6071ZM7.16862 9C3.28824 9 0.142578 12.07 0.142578 15.8571C0.142578 16.8039 0.928994 17.5714 1.89909 17.5714H14.3044C15.2745 17.5714 16.0609 16.8039 16.0609 15.8571C16.0609 12.07 12.9153 9 9.03491 9H7.16862Z"></path>
  </symbol>
  <symbol viewBox="0 0 33 33" id="facebook">
    <path fill-rule="evenodd" d="M16.5 0C7.3873 0 0 7.3873 0 16.5C0 25.6127 7.3873 33 16.5 33C25.6127 33 33 25.6127 33 16.5C33 7.3873 25.6127 0 16.5 0ZM17.3197 16.9989V26H13.7723V16.9993H12V13.8975H13.7723V12.0352C13.7723 9.50471 14.773 8 17.6162 8H19.9832V11.1022H18.5037C17.3969 11.1022 17.3237 11.5356 17.3237 12.3446L17.3197 13.8971H20L19.6864 16.9989H17.3197Z"></path>
  </symbol>
  <symbol viewBox="0 0 33 33" id="instagram">
    <path fill-rule="evenodd" d="M16.5 0C7.3873 0 0 7.3873 0 16.5C0 25.6127 7.3873 33 16.5 33C25.6127 33 33 25.6127 33 16.5C33 7.3873 25.6127 0 16.5 0ZM15.6736 8.00234H15.6749L16.0001 8.00244C18.6057 8.00244 18.9145 8.01179 19.9434 8.05856C20.8949 8.10207 21.4113 8.26108 21.7553 8.39467C22.2107 8.57157 22.5354 8.78303 22.8767 9.12463C23.2183 9.46623 23.4297 9.79156 23.607 10.247C23.7406 10.5907 23.8998 11.1071 23.9431 12.0587C23.9898 13.0876 24 13.3966 24 16.0013C24 18.606 23.9898 18.9151 23.9431 19.9439C23.8996 20.8955 23.7406 21.412 23.607 21.7556C23.4301 22.2111 23.2183 22.5354 22.8767 22.8768C22.5352 23.2184 22.2109 23.4299 21.7553 23.6068C21.4117 23.741 20.8949 23.8996 19.9434 23.9431C18.9147 23.9898 18.6057 24 16.0001 24C13.3943 24 13.0855 23.9898 12.0568 23.9431C11.1053 23.8991 10.5889 23.7401 10.2447 23.6066C9.7893 23.4297 9.46401 23.2182 9.12245 22.8766C8.7809 22.535 8.56946 22.2105 8.39218 21.7548C8.25861 21.4112 8.09942 20.8947 8.05611 19.9431C8.00935 18.9143 8 18.6052 8 15.9989C8 13.3926 8.00935 13.0851 8.05611 12.0563C8.09962 11.1047 8.25861 10.5882 8.39218 10.2442C8.56905 9.78871 8.7809 9.46338 9.12245 9.12178C9.46401 8.78019 9.7893 8.56872 10.2447 8.39141C10.5887 8.25722 11.1053 8.09862 12.0568 8.0549C12.957 8.01423 13.3059 8.00203 15.1247 8V8.00244C15.2943 8.00218 15.4768 8.00226 15.6736 8.00234ZM16 12.75C17.7964 12.75 19.2529 14.2065 19.2529 16.0033C19.2529 17.8 17.7964 19.2566 16 19.2566C14.2034 19.2566 12.7471 17.8 12.7471 16.0033C12.7471 14.2065 14.2034 12.75 16 12.75ZM20.0376 10.7942C20.0376 10.1474 20.5621 9.62345 21.2086 9.62345V9.62305C21.8552 9.62305 22.3797 10.1476 22.3797 10.7942C22.3797 11.4408 21.8552 11.9654 21.2086 11.9654C20.5621 11.9654 20.0376 11.4408 20.0376 10.7942ZM16.0001 10.9915C13.2325 10.9915 10.9886 13.2357 10.9886 16.0037C10.9886 18.7716 13.2325 21.0148 16.0001 21.0148C18.7676 21.0148 21.0107 18.7716 21.0107 16.0037C21.0107 13.2358 18.7676 10.9916 16.0001 10.9915Z"></path>
  </symbol>
  <symbol viewBox="0 0 33 33" id="vkontakte">
    <path fill-rule="evenodd" d="M16.5 0C7.3873 0 0 7.3873 0 16.5C0 25.6127 7.3873 33 16.5 33C25.6127 33 33 25.6127 33 16.5C33 7.3873 25.6127 0 16.5 0ZM21.3894 17.3626C21.1753 17.7039 21.0896 17.8738 21.3894 18.2556C21.4119 18.2869 21.5255 18.4018 21.6972 18.5756C22.4228 19.3099 24.1864 21.0944 24.4982 22.0566C24.6666 22.6223 24.3738 22.9091 23.7958 22.9091H21.768C21.2269 22.9091 20.954 22.6087 20.3635 21.9588C20.1123 21.6824 19.8037 21.3428 19.3926 20.9361C18.1871 19.7868 17.6709 19.6371 17.3711 19.6371C16.8217 19.6371 16.8231 19.7923 16.836 21.2339C16.8383 21.4897 16.841 21.786 16.841 22.1291C16.841 22.6223 16.6833 22.9091 15.3921 22.9091C13.2438 22.9091 10.8823 21.6179 9.20538 19.2351C6.6893 15.7442 6 13.1018 6 12.5704C6 12.2696 6.11669 12.0008 6.69548 12.0008H8.72396C9.24402 12.0008 9.43953 12.2252 9.63967 12.7808C10.6311 15.6444 12.3041 18.1465 12.9934 18.1465C13.2523 18.1465 13.369 18.0273 13.369 17.379V14.4203C13.3222 13.5773 13.0252 13.2128 12.8053 12.9429C12.6694 12.7762 12.563 12.6456 12.563 12.4605C12.563 12.2384 12.7554 12 13.0792 12H16.2676C16.6949 12 16.8394 12.2283 16.8394 12.7395V16.7174C16.8394 17.1436 17.0365 17.2932 17.1632 17.2932C17.4205 17.2932 17.6384 17.1436 18.1098 16.6769C19.5703 15.0616 20.6027 12.5696 20.6027 12.5696C20.7302 12.2688 20.9682 12 21.4844 12H23.5122C24.1249 12 24.2517 12.3132 24.1249 12.7395L24.1234 12.7403C23.8684 13.9099 21.3933 17.3587 21.3894 17.3626Z"></path>
  </symbol>
  <symbol viewBox="0 0 14 14" id="telephone">
    <path opacity="0.7" fill-rule="evenodd" d="M10.0482 8.44375C9.79763 8.44375 9.57891 8.49943 9.39995 8.61477C8.87104 8.95284 8.44951 9.21534 8.24669 9.21534C8.13534 9.21534 8.01604 9.11591 7.75358 8.8892L7.70983 8.84943C6.98209 8.21705 6.82699 8.05398 6.54464 7.75966L6.47306 7.68409C6.42137 7.63239 6.37762 7.58466 6.33388 7.54091C6.08732 7.28636 5.90837 7.10341 5.27606 6.3875L5.24822 6.35568C4.94599 6.01364 4.74715 5.79091 4.73522 5.62784C4.72329 5.46875 4.86248 5.21023 5.21641 4.72898C5.6459 4.1483 5.66181 3.43239 5.26811 2.60114C4.95395 1.94489 4.44094 1.31648 3.9876 0.763636L3.94783 0.715909C3.55811 0.238636 3.10476 0 2.59971 0C2.03899 0 1.57371 0.302273 1.32715 0.461364C1.30727 0.473295 1.28738 0.489205 1.2675 0.501136C0.714731 0.851136 0.313079 1.33239 0.161963 1.82159C-0.0647118 2.55739 -0.215828 3.51193 0.869825 5.49659C1.80834 7.21477 2.65936 8.36818 4.01146 9.75625C5.28402 11.0608 5.84871 11.4824 7.11332 12.3972C8.52109 13.4153 9.87318 14 10.8196 14C11.6985 14 12.3905 14 13.3767 12.8108C14.4107 11.5619 13.9812 10.7983 13.3608 10.158C12.7802 9.56136 11.1298 8.44375 10.0482 8.44375Z" fill="#A2B6C8"></path>
  </symbol>
</svg>